<svg width="40" height="40" viewBox="0 0 40 40" fill="none" xmlns="http://www.w3.org/2000/svg">
<path fill-rule="evenodd" clip-rule="evenodd" d="M3 11.3333C3 6.73096 6.73096 3 11.3333 3H28C32.6024 3 36.3333 6.73096 36.3333 11.3333V28C36.3333 32.6024 32.6024 36.3333 28 36.3333H11.3333C6.73096 36.3333 3 32.6024 3 28V11.3333ZM11.3333 6.33333C8.57191 6.33333 6.33333 8.57191 6.33333 11.3333V28C6.33333 30.7614 8.57191 33 11.3333 33H28C30.7614 33 33 30.7614 33 28V11.3333C33 8.57191 30.7614 6.33333 28 6.33333H11.3333Z" fill="#3C3C3C"/>
<path fill-rule="evenodd" clip-rule="evenodd" d="M27.5118 14.3215C28.1627 14.9724 28.1627 16.0276 27.5118 16.6785L19.1785 25.0118C18.5276 25.6627 17.4724 25.6627 16.8215 25.0118L12.6548 20.8452C12.0039 20.1943 12.0039 19.139 12.6548 18.4882C13.3057 17.8373 14.361 17.8373 15.0118 18.4882L18 21.4763L25.1548 14.3215C25.8057 13.6706 26.861 13.6706 27.5118 14.3215Z" fill="#3C3C3C"/>
</svg>
