<svg width="40" height="40" viewBox="0 0 40 40" fill="none" xmlns="http://www.w3.org/2000/svg">
<path fill-rule="evenodd" clip-rule="evenodd" d="M11.3333 3C6.73096 3 3 6.73096 3 11.3333V28C3 32.6024 6.73096 36.3333 11.3333 36.3333H28C32.6024 36.3333 36.3333 32.6024 36.3333 28V11.3333C36.3333 6.73096 32.6024 3 28 3H11.3333ZM27.5118 16.6784C28.1627 16.0276 28.1627 14.9723 27.5118 14.3214C26.8609 13.6705 25.8057 13.6705 25.1548 14.3214L18 21.4762L15.0118 18.4881C14.3609 17.8372 13.3057 17.8372 12.6548 18.4881C12.0039 19.1389 12.0039 20.1942 12.6548 20.8451L16.8214 25.0118C17.4723 25.6626 18.5276 25.6626 19.1785 25.0118L27.5118 16.6784Z" fill="#3C3C3C"/>
</svg>
