<svg width="16" height="16" viewBox="0 0 16 16" fill="none" xmlns="http://www.w3.org/2000/svg">
<g clip-path="url(#clip0_518_384)">
<path d="M8 0C12.4183 0 16 3.58172 16 8C16 12.4183 12.4183 16 8 16C3.58172 16 0 12.4183 0 8C0 3.58172 3.58172 0 8 0ZM12.6914 4.33496C12.2803 3.88867 11.6142 3.88865 11.2031 4.33496L6.68457 9.24121L4.79688 7.19141C4.3859 6.74552 3.71961 6.74559 3.30859 7.19141C2.89752 7.63772 2.89752 8.36228 3.30859 8.80859L5.93945 11.665C6.35053 12.1114 7.01763 12.1114 7.42871 11.665L12.6914 5.95117C13.1025 5.50486 13.1025 4.78127 12.6914 4.33496Z" fill="white"/>
</g>
<defs>
<clipPath id="clip0_518_384">
<rect width="16" height="16" fill="white"/>
</clipPath>
</defs>
</svg>
